HIERARCHY
ROOT Hips
{
     OFFSET 16.70260 95.31950 -20.80050
     CHANNELS 6 Xposition Yposition Zposition Zrotation Xrotation Yrotation
     JOINT Spine
     {
          OFFSET -0.00000 11.89050 -0.00000
          CHANNELS 3 Zrotation Xrotation Yrotation
          JOINT Spine1
          {
               OFFSET -0.00000 25.65740 0.12766
               CHANNELS 3 Zrotation Xrotation Yrotation
               JOINT HEad
               {
                    OFFSET 0.00000 8.73416 0.01134
                    CHANNELS 3 Zrotation Xrotation Yrotation
                    End Site
                    {
                         OFFSET -0.29000 12.77420 2.51395
                    }
               }
               JOINT LeftShoulder1
               {
                    OFFSET 8.99000 -0.36225 -0.22000
                    CHANNELS 3 Zrotation Xrotation Yrotation
                    JOINT LeftArm
                    {
                         OFFSET 10.28270 -0.00338 0.32212
                         CHANNELS 3 Zrotation Xrotation Yrotation
                         JOINT LeftForeArm
                         {
                              OFFSET 32.76690 0.09914 -1.42434
                              CHANNELS 3 Zrotation Xrotation Yrotation
                              JOINT LeftHand
                              {
                                   OFFSET 27.56430 0.08536 1.02216
                                   CHANNELS 3 Zrotation Xrotation Yrotation
                                   End Site
                                   {
                                        OFFSET 16.74430 -0.60000 1.50291
                                   }
                              }
                         }
                    }
               }
               JOINT RightShoulder
               {
                    OFFSET -8.99000 -0.36225 -0.22000
                    CHANNELS 3 Zrotation Xrotation Yrotation
                    JOINT RightArm
                    {
                         OFFSET -10.28270 -0.00338 0.32212
                         CHANNELS 3 Zrotation Xrotation Yrotation
                         JOINT RightForeArm
                         {
                              OFFSET -32.89710 0.09914 -1.42434
                              CHANNELS 3 Zrotation Xrotation Yrotation
                              JOINT RightHand
                              {
                                   OFFSET -27.49210 0.08536 1.02216
                                   CHANNELS 3 Zrotation Xrotation Yrotation
                                   End Site
                                   {
                                        OFFSET -16.63120 -0.60000 1.50291
                                   }
                              }
                         }
                    }
               }
          }
     }
     JOINT LeftUpLeg
     {
          OFFSET 8.94580 -8.66707 0.10165
          CHANNELS 3 Zrotation Xrotation Yrotation
          JOINT LeftLeg
          {
               OFFSET 0.00000 -44.42270 1.37270
               CHANNELS 3 Zrotation Xrotation Yrotation
               JOINT LeftFoot
               {
                    OFFSET -0.25355 -42.09240 -1.46059
                    CHANNELS 3 Zrotation Xrotation Yrotation
                    JOINT LeftToes
                    {
                         OFFSET -0.04000 -4.41509 8.49910
                         CHANNELS 3 Zrotation Xrotation Yrotation
                         End Site
                         {
                              OFFSET 0.08000 -0.04745 9.77979
                         }
                    }
               }
          }
     }
     JOINT RightUpLeg
     {
          OFFSET -8.94580 -8.66707 0.10165
          CHANNELS 3 Zrotation Xrotation Yrotation
          JOINT RightLeg
          {
               OFFSET -0.00000 -44.42270 1.37270
               CHANNELS 3 Zrotation Xrotation Yrotation
               JOINT RightFoot
               {
                    OFFSET 0.25355 -42.09240 -1.46059
                    CHANNELS 3 Zrotation Xrotation Yrotation
                    JOINT RightToes
                    {
                         OFFSET 0.04000 -4.41509 8.49910
                         CHANNELS 3 Zrotation Xrotation Yrotation
                         End Site
                         {
                              OFFSET -0.08000 -0.13745 9.77979
                         }
                    }
               }
          }
     }
}
MOTION
Frames: 17
Frame Time: 0.01667
16.70260 95.31950 -20.80050 -10.92530 -12.18520 -32.01130 2.24993 12.07150 -1.62978 -1.52463 24.73490 -2.22527 -12.85290 6.16465 17.60870 -0.00000 0.00000 -0.00000 -115.76700 -62.03380 -104.20900 -39.78690 51.49290 -73.96130 16.45960 7.50067 -13.09070 9.97779 0.36509 -0.07417 80.85300 0.69527 80.62780 14.29100 28.40440 90.64090 20.34710 12.17760 8.09969 23.52590 -7.78721 -13.75580 -23.45640 12.65350 69.31950 -14.64140 6.97774 1.81594 11.91600 16.89470 -45.63740 -17.17340 17.73850 15.96100 34.68190 3.35823 -18.56580 -24.62690 -8.31111 -0.31989 1.43991 -16.54340 11.02910 
16.62070 94.93780 -20.50740 -11.49460 -12.08580 -31.95610 3.13730 12.07290 -1.67243 -1.06287 24.86470 -2.07730 -13.21840 5.95386 17.40500 -0.00000 0.00000 -0.00000 -113.56900 -61.94660 -101.93900 -38.83480 50.56860 -74.43950 16.15300 7.60090 -12.70610 9.68849 0.40164 0.24399 80.64980 0.83285 80.28300 13.97730 28.33900 90.56000 20.21680 12.16790 8.12514 23.50280 -7.79077 -13.98890 -22.97460 13.52000 69.14150 -15.17070 5.94427 1.75431 12.35530 18.36350 -46.17680 -16.53390 17.41740 15.60620 34.95850 5.05980 -19.03560 -24.45060 -9.37593 -0.55970 1.42460 -16.45900 11.02900 
16.54120 94.57540 -20.22610 -12.08350 -12.07220 -31.86780 3.97366 12.13430 -1.71403 -0.59773 25.10990 -1.91484 -13.67250 5.75206 17.10720 -0.00000 0.00000 -0.00000 -111.25200 -61.90720 -99.55130 -38.08380 49.44830 -74.73310 15.79900 7.69235 -12.42270 9.39598 0.45177 0.68315 80.44920 0.93377 80.07290 13.36950 28.26940 90.57850 20.10630 12.14230 8.05125 23.50370 -7.65244 -14.12420 -22.51730 14.29790 68.84670 -15.47290 4.89462 1.65572 12.64150 18.77210 -46.77540 -15.95830 17.22950 15.33530 35.28290 6.62256 -19.43380 -24.18140 -10.42960 -0.79178 1.33409 -15.95650 10.83740 
16.44130 94.28330 -20.03450 -12.54560 -12.18890 -31.64500 4.57408 12.26290 -1.73815 -0.18961 25.45650 -1.77219 -14.10580 5.55155 16.69530 -0.00000 0.00000 -0.00000 -108.63900 -61.85760 -96.98880 -37.44870 48.08270 -74.91930 15.39200 7.77899 -12.22080 9.08092 0.50079 1.13650 80.27310 0.96974 80.10630 12.56820 28.19180 90.62770 20.01420 12.10490 7.90074 23.54930 -7.48735 -14.17420 -22.22710 14.83660 68.51330 -15.48590 4.29913 1.58052 12.81840 18.31130 -47.49990 -15.56820 17.25120 15.14890 35.65270 7.73783 -19.83560 -23.96390 -11.27250 -0.97408 1.23803 -15.40850 10.58640 
16.29570 94.11050 -20.01060 -12.75640 -12.42520 -31.19940 4.82060 12.44270 -1.70891 0.10977 25.85400 -1.64661 -14.38200 5.35436 16.13540 -0.00000 0.00000 -0.00000 -105.55600 -61.68370 -94.18790 -36.86890 46.44150 -75.04610 14.91440 7.87095 -12.04530 8.78533 0.53811 1.50898 80.10050 0.86335 80.44860 11.67760 28.08830 90.62410 19.95170 12.07160 7.75367 23.74300 -7.45181 -14.17740 -22.33530 14.99090 68.36530 -15.12850 4.62614 1.58375 12.95920 17.10860 -48.53910 -15.40780 17.49670 14.99070 36.03010 8.18008 -20.27370 -23.93010 -11.72600 -1.07408 1.19440 -15.14740 10.35730 
16.08070 94.09260 -20.19600 -12.62330 -12.75060 -30.46580 4.62846 12.64660 -1.58132 0.26674 26.22900 -1.49184 -14.42510 5.18798 15.33880 -0.00000 0.00000 -0.00000 -101.75400 -61.20360 -91.00980 -36.25610 44.47430 -75.17530 14.36160 7.97843 -11.81680 8.61862 0.55680 1.70639 79.87460 0.53383 81.09950 10.79610 27.94470 90.49920 19.93320 12.05260 7.65909 24.16870 -7.65657 -14.17270 -23.06070 14.65030 68.60870 -14.32180 6.10182 1.67093 13.04200 15.23440 -49.86870 -15.48730 17.95820 14.81450 36.36560 7.82705 -20.71140 -24.11170 -11.71620 -1.07872 1.20898 -15.21920 10.13910 
15.77630 94.27000 -20.59620 -12.08900 -13.12310 -29.42620 3.93065 12.86090 -1.32431 0.26025 26.53330 -1.26834 -14.24060 5.08275 14.24870 -0.00000 0.00000 -0.00000 -97.06840 -60.24410 -87.38170 -35.51350 42.09680 -75.37710 13.72940 8.10869 -11.46630 8.62405 0.55277 1.67124 79.59750 -0.05523 82.03450 10.01630 27.75570 90.19120 19.95040 12.04260 7.59332 24.83090 -8.06528 -14.07670 -24.45720 13.68720 69.28870 -12.95040 8.67453 1.77832 12.93870 12.70980 -51.18240 -15.83190 18.68370 14.67720 36.63050 6.46058 -21.04750 -24.50500 -11.19280 -0.97404 1.24257 -15.40180 9.86669 
15.35600 94.71020 -21.18840 -11.05660 -13.55380 -28.10850 2.53354 13.10580 -0.93569 0.05013 26.75960 -0.98018 -13.89310 5.07405 12.94150 -0.00000 0.00000 -0.00000 -91.66440 -58.76530 -83.48250 -34.65060 39.27070 -75.65410 12.98860 8.26443 -10.97810 8.69596 0.52512 1.42251 79.38260 -0.88125 83.23070 9.42434 27.51310 89.62190 19.98690 12.03200 7.51352 25.54530 -8.41207 -13.67560 -26.36640 11.92600 70.32240 -10.89750 12.08640 1.78601 12.56130 9.55304 -52.24260 -16.58970 19.82860 14.82500 36.81970 3.65613 -21.19390 -25.12530 -10.05980 -0.72977 1.24128 -15.37530 9.47362 
14.79160 95.51160 -21.94700 -9.40540 -14.07330 -26.57480 0.19071 13.41530 -0.43893 -0.44118 26.92950 -0.66084 -13.45600 5.23978 11.58860 -0.00000 0.00000 -0.00000 -85.98510 -56.90780 -79.67280 -33.81240 36.10810 -75.91910 12.11780 8.44027 -10.39090 8.67433 0.47732 1.02873 79.36670 -1.87850 84.63510 9.05713 27.19330 88.72720 20.00030 12.01980 7.43840 25.99940 -8.29982 -12.81370 -28.52600 9.20405 71.69410 -8.06137 15.98040 1.54588 11.98580 5.86540 -53.25900 -18.07170 21.77640 15.68950 37.00400 -1.52349 -20.97740 -26.11110 -7.95228 -0.24231 1.16793 -14.89410 8.96596 
14.07330 96.17110 -22.76490 -6.90450 -14.84150 -25.06370 -3.43901 13.82160 0.34097 -1.33867 27.07450 -0.34474 -12.95470 5.69509 10.32160 -0.00000 0.00000 -0.00000 -80.43280 -54.87740 -76.25440 -33.10880 32.83690 -76.10640 11.15140 8.62393 -9.74474 8.47033 0.41563 0.54906 79.59800 -2.97040 86.14060 8.85745 26.75430 87.52120 19.87380 12.00900 7.45185 25.43380 -9.09012 -11.07140 -31.01700 9.15159 73.73390 -6.13496 19.33480 1.30830 11.34900 1.76314 -54.78710 -19.97090 21.85410 16.28630 37.18860 -3.13089 -21.86200 -26.33030 -7.69500 -0.18037 1.01792 -13.88760 8.44054 
13.34910 96.70770 -23.37590 -4.46995 -15.50700 -23.71400 -6.34548 14.04520 1.01384 -2.36140 27.09460 -0.05438 -12.37470 6.52388 9.17054 -0.00000 0.00000 -0.00000 -75.21690 -52.79420 -73.39130 -32.48970 29.66960 -76.23990 10.17490 8.80087 -9.05628 8.12154 0.34660 0.01106 80.00980 -4.11336 87.60690 8.75434 26.15370 86.09650 19.47940 11.99490 7.60476 24.67650 -11.13080 -8.21556 -33.84900 13.18130 76.25730 -5.63726 21.81520 1.29881 10.65160 -2.69052 -57.16500 -21.59630 21.24830 16.72110 37.16150 -3.10733 -23.10490 -25.86940 -8.05815 -0.26695 0.83138 -12.58560 7.99723 
12.57370 97.42780 -23.68420 -1.69367 -16.19680 -22.26110 -9.75369 14.22990 1.58021 -3.73839 27.03520 0.19639 -11.71590 7.71619 8.12859 -0.00000 0.00000 -0.00000 -70.45040 -50.69290 -71.18700 -31.86180 26.74580 -76.35070 9.29565 8.95576 -8.35667 7.77355 0.27732 -0.55895 80.48680 -5.31549 88.90830 8.76149 25.37930 84.57220 18.80530 11.96580 7.85053 23.47540 -13.39480 -4.35157 -36.88580 19.54520 78.81550 -5.42014 23.65240 1.31953 9.77902 -7.28682 -60.08490 -23.60240 20.68650 17.40350 37.05290 -3.07818 -24.65780 -25.15490 -7.99565 -0.24978 0.70155 -11.62000 7.64523 
11.79600 98.39680 -23.76720 1.26775 -16.80130 -20.90530 -13.45490 14.28960 2.14014 -5.31744 26.85820 0.39888 -11.04290 9.15671 7.23183 -0.00000 0.00000 -0.00000 -66.26090 -48.62880 -69.72450 -31.24240 24.15440 -76.41650 8.62767 9.07288 -7.72610 7.57007 0.21498 -1.10565 80.97280 -6.59394 89.99450 8.93087 24.46690 83.05510 17.95660 11.91870 8.12070 22.11780 -15.78600 0.65721 -40.14810 28.24890 81.15680 -5.51400 24.62330 1.38650 8.75782 -11.40830 -62.68430 -25.92020 20.01080 18.07730 37.07680 -3.03954 -26.48430 -24.73850 -6.81829 0.02005 0.73469 -11.76070 7.34111 
11.10300 99.62900 -23.57240 3.99572 -17.22470 -19.84320 -16.84500 14.13110 2.64982 -6.86039 26.55700 0.51657 -10.50390 10.64670 6.58004 -0.00000 0.00000 -0.00000 -62.80870 -46.72380 -69.04470 -30.76250 21.95230 -76.40830 8.28602 9.13827 -7.27612 7.52144 0.16473 -1.56170 81.52970 -7.91682 90.92900 9.25871 23.48770 81.63830 17.05620 11.86470 8.40843 20.50180 -16.83450 5.97591 -42.11800 36.49540 82.40810 -4.94718 25.20480 1.24886 7.86851 -14.28930 -64.06620 -28.27860 19.18690 18.47800 37.47680 -2.98502 -28.63400 -25.15150 -3.98410 0.67772 0.95876 -13.26870 7.10279 
10.59380 101.06200 -23.02790 6.01547 -17.42250 -19.19100 -19.17810 13.72700 2.99199 -8.09656 26.18170 0.46117 -10.27310 11.93560 6.28713 -0.00000 0.00000 -0.00000 -60.23100 -45.10560 -69.13950 -30.59510 20.16040 -76.32980 8.35467 9.14196 -7.11671 7.51256 0.12856 -1.89196 82.28590 -9.21713 91.86480 9.67428 22.52990 80.42290 16.18480 11.81690 8.74438 18.66000 -16.60020 10.66150 -42.30690 43.92130 82.24620 -4.37825 25.33030 1.08995 7.34393 -15.71400 -64.00730 -30.06770 17.55490 18.07080 38.38700 -1.40935 -31.53850 -26.26940 0.03662 1.67992 1.23342 -15.17590 6.94749 
10.33740 102.65100 -22.11880 6.95020 -17.34030 -18.88210 -19.80180 13.15160 2.99496 -8.80531 25.80210 0.12613 -10.44970 12.77110 6.41276 -0.00000 0.00000 -0.00000 -58.57810 -43.84130 -69.98890 -30.88950 18.79050 -76.18230 8.82258 9.08106 -7.32152 7.44777 0.10467 -2.11188 83.32190 -10.46620 92.97810 10.08480 21.70290 79.51690 15.36110 11.77920 9.14823 16.95620 -14.84510 13.40170 -41.30380 48.95260 81.35130 -3.80588 25.20190 0.92182 7.07731 -16.32320 -63.28840 -30.92440 15.34350 16.66030 39.76220 1.36921 -34.85370 -27.96110 5.07824 3.08157 1.20981 -14.99240 6.73183 
10.34830 104.32100 -20.92390 6.63314 -16.86690 -18.74010 -18.45540 12.55520 2.53046 -8.90478 25.47040 -0.53919 -11.03190 12.99000 6.92847 -0.00000 0.00000 -0.00000 -57.79530 -42.92600 -71.59310 -31.69110 17.89030 -75.93980 9.54386 8.96716 -7.85347 7.33382 0.08812 -2.26819 84.60230 -11.69900 94.40140 10.37410 21.10850 79.01180 14.54200 11.74630 9.62568 15.84120 -11.45750 13.31260 -40.32880 50.14920 80.89180 -2.95624 25.04850 0.67548 6.83862 -16.93450 -62.95350 -30.57680 13.25000 14.24670 41.10900 3.95760 -37.51020 -30.08580 10.91200 4.92639 0.61115 -10.54150 6.35827 
